<svg width="158" height="40" viewBox="0 0 158 40" fill="none" xmlns="http://www.w3.org/2000/svg">
<path d="M19.1203 38.2169C9.04797 33.735 4.51785 22 8.97568 11.9277C14.8793 9.32533 21.6022 9.68678 27.1203 12.988C18.4456 18.1446 15.0239 28.9398 19.1203 38.2169Z" fill="url(#paint0_linear)"/>
<path d="M27.1446 39.9036C24.3494 39.9036 21.6025 39.3494 19.0723 38.1687C16.4699 32.2651 16.9037 25.5422 20.1326 20.0241C25.2892 28.7229 36.1085 32.2169 45.3615 28.0964C42.1808 35.3012 35.0482 39.9036 27.1446 39.9036Z" fill="url(#paint1_linear)"/>
<path d="M35.2168 1.85541C45.2891 6.26505 49.8433 18 45.3614 28.0723C39.4578 30.6747 32.6867 30.241 27.1445 27.012C35.9156 21.8554 39.3373 11.0602 35.2168 1.85541Z" fill="url(#paint2_linear)"/>
<path d="M27.1446 0.0963745C29.9398 0.0963745 32.6868 0.650594 35.2169 1.83132C37.8434 7.75903 37.4096 14.4578 34.1807 20C29.0723 11.3012 18.2771 7.80722 9 11.9277C12.1566 4.69879 19.3133 0.0963745 27.1446 0.0963745Z" fill="url(#paint3_linear)"/>
<path d="M70.0825 23.6875C70.0825 22.8359 69.8521 22.1836 69.3911 21.7305C68.9302 21.2773 68.0981 20.8359 66.895 20.4062C65.6919 19.9766 64.77 19.5273 64.1294 19.0586C63.4966 18.582 63.02 18.043 62.6997 17.4414C62.3872 16.832 62.231 16.1367 62.231 15.3555C62.231 14.0039 62.6802 12.8906 63.5786 12.0156C64.4849 11.1406 65.6685 10.7031 67.1294 10.7031C68.1294 10.7031 69.02 10.9297 69.8013 11.3828C70.5825 11.8281 71.1841 12.4492 71.606 13.2461C72.0278 14.043 72.2388 14.918 72.2388 15.8711H70.0825C70.0825 14.8164 69.8286 14 69.3208 13.4219C68.813 12.8438 68.0825 12.5547 67.1294 12.5547C66.2622 12.5547 65.5903 12.7969 65.1138 13.2812C64.6372 13.7656 64.3989 14.4453 64.3989 15.3203C64.3989 16.0391 64.6567 16.6406 65.1724 17.125C65.688 17.6094 66.4849 18.043 67.563 18.4258C69.2427 18.9805 70.4419 19.6641 71.1606 20.4766C71.8872 21.2891 72.2505 22.3516 72.2505 23.6641C72.2505 25.0469 71.8013 26.1562 70.9028 26.9922C70.0044 27.8203 68.7817 28.2344 67.2349 28.2344C66.2427 28.2344 65.3247 28.0195 64.481 27.5898C63.645 27.1523 62.9849 26.543 62.5005 25.7617C62.0239 24.9727 61.7856 24.0703 61.7856 23.0547H63.9419C63.9419 24.1094 64.2349 24.9297 64.8208 25.5156C65.4146 26.1016 66.2192 26.3945 67.2349 26.3945C68.1802 26.3945 68.8911 26.1523 69.3677 25.668C69.8442 25.1836 70.0825 24.5234 70.0825 23.6875ZM78.895 20.1367L77.2192 22.1641V28H75.0747V10.9375H77.2192V19.1758L78.6255 17.3125L83.2192 10.9375H85.7974L80.2544 18.4492L86.231 28H83.6646L78.895 20.1367ZM92.5942 19.5039L96.0864 10.9375H98.5122L93.6606 21.6367V28H91.5161V21.6367L86.6646 10.9375H89.1021L92.5942 19.5039ZM102.895 26.1602H109.586V28H100.739V10.9375H102.895V26.1602ZM114.391 28H112.247V10.9375H114.391V28ZM129.297 28H127.141L120.309 14.8516V28H118.153V10.9375H120.309L127.165 24.1445V10.9375H129.297V28ZM141.192 20.1133H135.157V26.1602H142.188V28H133.012V10.9375H142.071V12.7891H135.157V18.2734H141.192V20.1133Z" fill="white"/>
<defs>
<linearGradient id="paint0_linear" x1="17.2062" y1="38.2142" x2="17.2062" y2="10.2451" gradientUnits="userSpaceOnUse">
<stop stop-color="#0C55A0"/>
<stop offset="0.18" stop-color="#0B5FA7"/>
<stop offset="0.5" stop-color="#077BB8"/>
<stop offset="0.9" stop-color="#02A8D4"/>
<stop offset="1" stop-color="#00B4DC"/>
</linearGradient>
<linearGradient id="paint1_linear" x1="17.3648" y1="29.9463" x2="45.3589" y2="29.9463" gradientUnits="userSpaceOnUse">
<stop stop-color="#29A539"/>
<stop offset="1" stop-color="#FFE00E"/>
</linearGradient>
<linearGradient id="paint2_linear" x1="37.1149" y1="29.7799" x2="37.1105" y2="1.8123" gradientUnits="userSpaceOnUse">
<stop stop-color="#004A8E"/>
<stop offset="1" stop-color="#E61574"/>
</linearGradient>
<linearGradient id="paint3_linear" x1="8.99289" y1="10.0503" x2="36.9599" y2="10.0547" gradientUnits="userSpaceOnUse">
<stop stop-color="#EF7A15"/>
<stop offset="1" stop-color="#E51174"/>
</linearGradient>
</defs>
</svg>
